:SAMPLES-PER-SECOND 30
:FULLY-SPECIFIED
:DEGREES
555
root  41.6181 39.121 11.4592 172.386 3.84219 178.394
RightUpLeg  0.991381 -17.5564 -13.281
RightLeg  12.8524 -26.1688 0.492355
RightFoot  -3.79981 -0.281501 3.88737
RightToes  -2.21189e-009 0 -3.6325e-017
Spine  18.5365 -1.11802 11.1543
Spine1  4.57259 1.36847 -2.11117
HEad  -3.40174 -14.8657 -49.5906
LeftShoulder1  0.332392 2.53935 -28.3205
LeftArm  -12.2935 7.67081 -38.9708
LeftForeArm  41.268 -77.2737 -58.2595
LeftHand  0.0760243 0.929309 -2.11128
RightShoulder  -0.141442 -3.93079 24.9237
RightArm  -5.98473 -19.3316 31.7314
RightForeArm  88.467 76.2343 123.209
RightHand  -0.194529 2.85108 -2.88749
LeftUpLeg  -4.68909 14.2978 9.84109
LeftLeg  24.767 3.72822 2.20482
LeftFoot  -5.7087 0.0155967 0.379766
LeftToes  -4.03379e-008 1.61488e-010 -5.81581e-011
556
root  40.939 39.1459 11.6577 172.723 -1.48822 178.295
RightUpLeg  2.30189 -18.6433 -15.4996
RightLeg  11.9704 -29.2487 0.76359
RightFoot  -2.68322 -0.343765 4.28408
RightToes  -2.21189e-009 0 -3.6325e-017
Spine  17.0193 -1.03025 10.0604
Spine1  4.81281 1.24625 -2.48773
HEad  -2.96984 -12.6484 -50.7715
LeftShoulder1  0.313 2.60075 -28.5664
LeftArm  -12.3414 8.20248 -39.1721
LeftForeArm  44.7565 -77.7106 -61.8705
LeftHand  0.0583841 1.53302 -2.12423
RightShoulder  -0.187051 -4.07688 24.9029
RightArm  -6.95818 -19.7883 31.7195
RightForeArm  90.2226 75.6542 126.359
RightHand  -0.334037 3.21654 -4.66628
LeftUpLeg  -2.85259 17.6755 12.079
LeftLeg  23.113 5.50546 2.89057
LeftFoot  -5.64672 0.0400749 -0.123511
LeftToes  -4.03379e-008 1.61488e-010 -5.81581e-011
557
root  40.1387 39.1652 11.8434 173.489 -7.07394 177.849
RightUpLeg  3.65687 -19.9707 -18.2317
RightLeg  10.6829 -31.8941 1.35872
RightFoot  -1.66291 -0.459788 5.29755
RightToes  -2.21189e-009 0 -3.6325e-017
Spine  15.6751 -1.00556 8.61817
Spine1  4.46091 0.941384 -2.73152
HEad  -1.98587 -10.0767 -53.3144
LeftShoulder1  0.219423 2.87818 -28.9485
LeftArm  -12.0627 8.54189 -39.2733
LeftForeArm  47.3127 -77.9673 -64.1931
LeftHand  0.108077 1.76599 -3.83186
RightShoulder  -0.262497 -4.31466 25.0606
RightArm  -8.15797 -20.4429 31.2939
RightForeArm  96.1356 75.1014 129.808
RightHand  -0.149354 1.61887 -2.66019
LeftUpLeg  -1.87902 21.1909 13.0179
LeftLeg  21.024 8.87226 4.06729
LeftFoot  -5.83431 0.0290536 0.129466
LeftToes  -4.03379e-008 1.61488e-010 -5.81581e-011
558
root  39.2296 39.1613 12.033 174.619 -12.7297 177.72
RightUpLeg  4.88805 -20.3235 -20.1637
RightLeg  8.98428 -34.4802 1.75195
RightFoot  -1.01566 -0.551447 6.02779
RightToes  -2.21189e-009 0 -3.6325e-017
Spine  13.8388 -1.01926 8.43805
Spine1  4.73347 0.992471 -4.00576
HEad  -0.644922 -8.15863 -54.5425
LeftShoulder1  0.28169 2.693 -28.6128
LeftArm  -11.1836 8.21121 -39.9684
LeftForeArm  46.7422 -77.9537 -64.466
LeftHand  0.0812592 1.36806 -2.58542
RightShoulder  -0.301665 -4.43511 25.2187
RightArm  -9.50042 -21.6079 30.887
RightForeArm  97.2816 74.3604 132.711
RightHand  -0.200288 2.63263 -3.10506
LeftUpLeg  -1.67966 24.3882 13.0872
LeftLeg  18.7262 12.4546 4.9759
LeftFoot  -5.92636 -0.0140197 0.961908
LeftToes  -4.03379e-008 1.61488e-010 -5.81581e-011
559
root  38.1547 39.0906 12.2173 176.037 -18.5124 177.58
RightUpLeg  6.2385 -20.382 -21.9751
RightLeg  6.83778 -34.9164 2.34227
RightFoot  -1.61551 -0.734013 8.50022
RightToes  -2.21189e-009 0 -3.6325e-017
Spine  11.7326 -0.938765 8.21133
Spine1  5.07716 0.95083 -4.43972
HEad  0.890873 -6.13191 -55.5609
LeftShoulder1  0.223937 2.86534 -28.931
LeftArm  -9.72214 7.44208 -40.7216
LeftForeArm  45.3229 -77.8418 -63.6311
LeftHand  0.0281411 1.69837 -1.21652
RightShoulder  -0.323724 -4.51044 25.0461
RightArm  -11.0358 -23.2572 29.7938
RightForeArm  101.151 73.441 136.256
RightHand  -0.158989 2.14458 -2.63619
LeftUpLeg  -1.97052 26.3931 11.9943
LeftLeg  16.2541 15.3265 4.94796
LeftFoot  -5.1266 0.113749 -1.0398
LeftToes  -4.03379e-008 1.61488e-010 -5.81581e-011
560
root  36.9256 38.9631 12.3859 177.382 -24.588 176.991
RightUpLeg  8.2379 -20.819 -24.6303
RightLeg  4.66912 -31.9696 3.18269
RightFoot  -2.5888 -0.869014 11.0993
RightToes  -2.21189e-009 0 -3.6325e-017
Spine  9.51891 -0.911766 7.58216
Spine1  5.73913 0.816591 -4.86658
HEad  2.63711 -4.26299 -55.2911
LeftShoulder1  0.202932 2.92522 -28.961
LeftArm  -7.74109 6.95588 -41.763
LeftForeArm  44.8972 -77.7771 -62.8553
LeftHand  0.0610586 1.22798 -1.81796
RightShoulder  -0.365045 -4.64746 24.9075
RightArm  -12.1601 -24.7542 27.8374
RightForeArm  102.163 72.5904 138.762
RightHand  -0.178081 1.8602 -3.03149
LeftUpLeg  -2.53568 26.6146 9.88275
LeftLeg  14.8247 13.9838 3.20763
LeftFoot  -3.47197 0.530407 -7.52237
LeftToes  -4.03379e-008 1.61488e-010 -5.81581e-011
